# xmcd
#
# Track frame offsets: 
#        183
#        19860
#        39555
#        58578
#
# Disc length: 1144 seconds
#
# Revision: 0
# Processed by: cddbd v1.5.2PL0 Copyright (c) Steve Scherf et al.
# Submitted via: ExactAudioCopy v1.0b3
#
DISCID=2c047604
DTITLE=Voice Of Buddha - Can You Hear The Voice Of Buddha
DYEAR=1900
DGENRE=
TTITLE0=Can You Hear The Voice Of Buddha (Confessio Radio Mix)
TTITLE1=Can You Hear The Voice Of Buddha (Interaction Mix)
TTITLE2=Can You Hear The Voice Of Buddha (Adept Mix)
TTITLE3=Can You Hear The Voice Of Buddha (Mega Adept Mix)
EXTD=
EXTT0=
EXTT1=
EXTT2=
EXTT3=
PLAYORDER=
